<mxfile host="app.diagrams.net" modified="2021-05-28T07:46:34.865Z" agent="5.0 (Windows NT 10.0; Win64; x64) AppleWebKit/537.36 (KHTML, like Gecko) Chrome/90.0.4430.212 Safari/537.36" etag="-X94LjN6MavhrOyWzQ87" version="14.6.6" type="github">
  <diagram id="MNUxyLGTkZcGFcFdzjt9" name="Seite-1">
    <mxGraphModel dx="767" dy="477" grid="1" gridSize="10" guides="1" tooltips="1" connect="1" arrows="1" fold="1" page="1" pageScale="1" pageWidth="827" pageHeight="1169" math="0" shadow="0">
      <root>
        <mxCell id="0" />
        <mxCell id="1" parent="0" />
        <mxCell id="BPWZGP5ZO-HpJrf2GSJv-14" value="GRIPS" style="rounded=0;whiteSpace=wrap;html=1;verticalAlign=top;" vertex="1" parent="1">
          <mxGeometry x="400" y="180" width="200" height="100" as="geometry" />
        </mxCell>
        <mxCell id="BPWZGP5ZO-HpJrf2GSJv-1" value="Word" style="rounded=0;whiteSpace=wrap;html=1;verticalAlign=top;" vertex="1" parent="1">
          <mxGeometry x="120" y="40" width="160" height="240" as="geometry" />
        </mxCell>
        <mxCell id="BPWZGP5ZO-HpJrf2GSJv-7" style="edgeStyle=orthogonalEdgeStyle;rounded=0;orthogonalLoop=1;jettySize=auto;html=1;exitX=1;exitY=0.5;exitDx=0;exitDy=0;entryX=0;entryY=0.5;entryDx=0;entryDy=0;" edge="1" parent="1" source="BPWZGP5ZO-HpJrf2GSJv-2" target="BPWZGP5ZO-HpJrf2GSJv-4">
          <mxGeometry relative="1" as="geometry" />
        </mxCell>
        <mxCell id="BPWZGP5ZO-HpJrf2GSJv-2" value="GRIPS Addin" style="rounded=1;whiteSpace=wrap;html=1;" vertex="1" parent="1">
          <mxGeometry x="140" y="200" width="120" height="60" as="geometry" />
        </mxCell>
        <mxCell id="BPWZGP5ZO-HpJrf2GSJv-13" style="edgeStyle=orthogonalEdgeStyle;rounded=0;orthogonalLoop=1;jettySize=auto;html=1;entryX=0.75;entryY=0;entryDx=0;entryDy=0;exitX=0.75;exitY=1;exitDx=0;exitDy=0;" edge="1" parent="1" source="BPWZGP5ZO-HpJrf2GSJv-4" target="BPWZGP5ZO-HpJrf2GSJv-12">
          <mxGeometry relative="1" as="geometry">
            <Array as="points" />
          </mxGeometry>
        </mxCell>
        <mxCell id="BPWZGP5ZO-HpJrf2GSJv-4" value="Service&lt;br&gt;Charisma" style="rounded=0;whiteSpace=wrap;html=1;" vertex="1" parent="1">
          <mxGeometry x="400" y="40" width="200" height="100" as="geometry" />
        </mxCell>
        <mxCell id="BPWZGP5ZO-HpJrf2GSJv-6" style="edgeStyle=orthogonalEdgeStyle;rounded=0;orthogonalLoop=1;jettySize=auto;html=1;entryX=0.5;entryY=0;entryDx=0;entryDy=0;" edge="1" parent="1" source="BPWZGP5ZO-HpJrf2GSJv-5" target="BPWZGP5ZO-HpJrf2GSJv-2">
          <mxGeometry relative="1" as="geometry" />
        </mxCell>
        <mxCell id="BPWZGP5ZO-HpJrf2GSJv-5" value="VBA" style="rounded=1;whiteSpace=wrap;html=1;" vertex="1" parent="1">
          <mxGeometry x="140" y="90" width="120" height="60" as="geometry" />
        </mxCell>
        <mxCell id="BPWZGP5ZO-HpJrf2GSJv-8" value="COM" style="text;html=1;strokeColor=none;fillColor=none;align=center;verticalAlign=middle;whiteSpace=wrap;rounded=0;" vertex="1" parent="1">
          <mxGeometry x="200" y="160" width="40" height="20" as="geometry" />
        </mxCell>
        <mxCell id="BPWZGP5ZO-HpJrf2GSJv-9" value="REST" style="text;html=1;strokeColor=none;fillColor=none;align=center;verticalAlign=middle;whiteSpace=wrap;rounded=0;" vertex="1" parent="1">
          <mxGeometry x="330" y="150" width="40" height="20" as="geometry" />
        </mxCell>
        <mxCell id="BPWZGP5ZO-HpJrf2GSJv-12" value="UgiResolvingService" style="rounded=1;whiteSpace=wrap;html=1;" vertex="1" parent="1">
          <mxGeometry x="430" y="230" width="160" height="40" as="geometry" />
        </mxCell>
        <mxCell id="BPWZGP5ZO-HpJrf2GSJv-16" value="" style="shape=image;verticalLabelPosition=bottom;labelBackgroundColor=#ffffff;verticalAlign=top;aspect=fixed;imageAspect=0;image=https://img.icons8.com/color/2x/microsoft-word-2019--v2.png;" vertex="1" parent="1">
          <mxGeometry x="120" y="40" width="40" height="40" as="geometry" />
        </mxCell>
        <mxCell id="BPWZGP5ZO-HpJrf2GSJv-18" value="" style="shape=image;verticalLabelPosition=bottom;labelBackgroundColor=#ffffff;verticalAlign=top;aspect=fixed;imageAspect=0;image=data:image/png,iVBORw0KGgoAAAANSUhEUgAAAEUAAABACAYAAABMQLqaAAAEO0lEQVR4Ae2b+U8TQRTH+UfEH4iCxgMhQUUjEeL1g4kSY1TURI1R4hUMUeOReMSo8U5M1PiLxvijRokgVEsFgQqKVrAIioLIDVqstdZi+8w0jt3j7XSga9m1s8lkZt4cO9/PvnndbrcJIA4VgQSVRRhAQEGcQEARUBACiInpKeXPWyFr8xVISCuMOu06U4Sc3pgmTSh6gFDOYRYwKBTiIUpBetXNAAaFQhauFwRsHqODQaFgQvS2GRnMmEHRG/JI5yMhQuuIWygUIgYm7qFgHhP3ULDYFvdQyDZSHtxQbjb74H9INJZIcwEF+coioAgo6i0v3Ta0LDxFeIrwFK5PR7plpLnYPmL7iO0jts9o766lsYSW/0lMub3/IhglRYJFQUjzfwKlZFwyGCUJKMjFEFAEFL4tampPeTRtJrzYshNaL12Frrv3YaCyGj7X1MJglR16SizQfv0WNB05Afbc1VCaNIU7ZpkSSl3eJhioqIJgIKAM+pr1X57v0HWnCGpXrosIx1RQrGlzoL+8UlM4b8PXRicTjGmgPFmwFHx9/by6mf2Cw8Pmh2LLzIGfA4NMoaHGYDDUz9vZBcPfPJr9TQ/lwfhJMORo0BRIGkh8qd+YD5aUGTIPsM2aD417DoKr3iEbb3oor/cekgmSVgI/fODYvlsGQuuuuC5vI3g+tIWGmxtKYgp4OzqlHMLlYBDqN+VzAaGgyiZMh/YbtyDg9zPHGTrQ2petCkNQlLrv3WcKoyCw3Jo+lznW0FDenb+kQBGuVi9ZzhSGweC1GRpKb5k1TEFSIh/NvAJH08/QUMhNFnYMPqlRQbFMToeGgn3cqTRpqmoOCtDQUDwf2jEm0F1UohJUkbUI7atlfDg1QzWHOaC0vkc19RSXqgTFDRTXy1colM+1z+IXSndRMQrFPzQEJYkpMjBx4ynNJ8+iUIjRnrtGBoXcmD1dsVaWWk6d0xxv2phStXiZpqg+i1UGhQZJaf58w1bN8YaBIv1JQFmWipGW3W9aNIU5dhQywYwWinJtPHXlIrlf72JNLgUhLTu2FSjP97dOvtg5DxxTxRc6PlZQuF8EJB1ZEJRtVIgqT0wJPXv9SwIpfH3tDD0ieJyZIwMUKyjcr4y63F59oIxLhkfTZ8H3jx0IDrUp4PPBj+4eCD1ocrvVHf5YWDFFecEi1bGToNuHduT9N4fKQxS/x5RnZIG7+S2dNupcDyiYh9CFMaHQTpHySFBIe9nEVGi7dh1ILInmcL9phrLkVM0gHc3cdGzMoFBwttnZ8P7yNfB2fKJrYOb+Ly7otVih6fBxqJi3UBMGnZ85GWdjzKHQxZPclpEFJKA69x+Ft2cuAnkG03L6AjTuPQTP1m8GW2a2LPhKx2qVOXUzu40pFC1h0diZajkbBRQElIAioCAEEJMunjJI3hYwSEI0jtikC5QRn9XgAwQU5AL9BlfbJ+SKRwIAAAAAAElFTkSuQmCC;imageBackground=#ffffff;" vertex="1" parent="1">
          <mxGeometry x="401" y="181" width="43.13" height="40" as="geometry" />
        </mxCell>
      </root>
    </mxGraphModel>
  </diagram>
</mxfile>
